<?xml version="1.0" encoding="UTF-8" standalone="no"?>
<!-- Created with Inkscape (http://www.inkscape.org/) -->
<svg
   xmlns:dc="http://purl.org/dc/elements/1.1/"
   xmlns:cc="http://web.resource.org/cc/"
   xmlns:rdf="http://www.w3.org/1999/02/22-rdf-syntax-ns#"
   xmlns:svg="http://www.w3.org/2000/svg"
   xmlns="http://www.w3.org/2000/svg"
   xmlns:xlink="http://www.w3.org/1999/xlink"
   xmlns:sodipodi="http://inkscape.sourceforge.net/DTD/sodipodi-0.dtd"
   xmlns:inkscape="http://www.inkscape.org/namespaces/inkscape"
   sodipodi:docname="fig-seg.svg"
   sodipodi:docbase="/prev/home/paulfitz/wide/paper/child05"
   height="297mm"
   width="210mm"
   inkscape:version="0.41"
   sodipodi:version="0.32"
   id="svg2">
  <metadata
     id="metadata7">
    <rdf:RDF
       id="RDF9">
      <cc:Work
         id="Work11"
         rdf:about="">
        <dc:format
           id="format13">image/svg+xml</dc:format>
        <dc:type
           rdf:resource="http://purl.org/dc/dcmitype/StillImage"
           id="type15" />
      </cc:Work>
    </rdf:RDF>
  </metadata>
  <defs
     id="defs5" />
  <sodipodi:namedview
     inkscape:current-layer="svg2"
     inkscape:window-y="0"
     inkscape:window-x="0"
     inkscape:cy="526.18109"
     inkscape:cx="372.04725"
     inkscape:zoom="0.75639358"
     inkscape:window-height="970"
     inkscape:window-width="1393"
     inkscape:pageshadow="2"
     inkscape:pageopacity="0.0"
     borderopacity="1.0"
     bordercolor="#666666"
     pagecolor="#ffffff"
     id="base" />
  <image
     y="136.95427"
     x="82.756989"
     id="image1430"
     height="77.000000"
     width="108.00000"
     sodipodi:absref="/prev/home/paulfitz/wide/paper/child05/images/scene.ppm"
     xlink:href="images/scene.ppm" />
  <g
     transform="translate(0.610367,42.49535)"
     id="g6139">
    <image
       y="93.515594"
       x="349.93695"
       id="image5280"
       height="77.000000"
       width="108.00000"
       sodipodi:absref="/prev/home/paulfitz/wide/paper/child05/images/outpull0-norm.ppm"
       xlink:href="images/outpull0-norm.ppm" />
    <path
       id="path5353"
       d="M 353.98054,169.85529 L 358.48054,169.48680 L 358.26811,159.28113 C 358.15127,153.66801 358.03877,144.46295 358.01811,138.82545 L 357.98054,128.57545 L 354.53956,128.57545 C 352.64702,128.57545 350.87858,128.21950 350.60970,127.78444 C 350.34082,127.34938 351.60375,127.16655 353.41620,127.37815 C 356.27086,127.71141 356.77521,127.42991 357.18749,125.27320 C 357.63935,122.90945 357.45651,122.80022 353.57198,123.11326 L 349.48054,123.44298 L 353.19960,122.41719 L 356.91866,121.39140 L 357.19960,109.73343 L 357.48054,98.075451 L 372.73054,97.799401 L 387.98054,97.523361 L 387.98054,107.04940 L 387.98054,116.57545 L 399.92152,116.57545 C 406.80349,116.57545 412.12435,116.15178 412.48054,115.57545 C 413.26861,114.30033 420.27180,114.26671 421.53706,115.53197 C 422.06315,116.05806 425.98960,116.56955 430.26250,116.66862 C 434.67684,116.77097 438.34078,117.32949 438.74788,117.96210 C 439.96254,119.84961 441.95507,125.99311 441.86580,127.57545 C 441.81926,128.40045 441.44549,127.95045 441.03519,126.57545 C 440.49296,124.75829 440.25677,125.69478 440.17046,130.00414 C 440.10306,133.36975 439.49594,136.47327 438.76613,137.18292 C 437.85296,138.07086 430.82250,138.60816 414.49712,139.03765 C 401.85623,139.37020 391.19294,139.96476 390.80091,140.35887 C 390.40888,140.75299 389.95142,147.48868 389.78433,155.32707 L 389.48054,169.57869 L 423.21866,169.57707 L 456.95677,169.57545 L 457.23696,131.32545 L 457.51714,93.075451 L 457.49884,131.57545 L 457.48054,170.07545 L 403.48054,170.14961 C 373.78054,170.19040 351.50554,170.05795 353.98054,169.85529 z M 362.27029,167.57545 C 362.99630,164.79916 367.96478,164.79916 368.69079,167.57545 C 369.16516,169.38944 370.05481,169.57545 378.25631,169.57545 L 387.29883,169.57545 L 386.57524,147.32545 C 386.17726,135.08795 385.90319,120.66005 385.96620,115.26345 C 386.08024,105.49506 386.07112,105.45661 383.91398,106.61107 C 381.20663,108.06000 378.85796,106.09499 378.63196,102.19186 L 378.48054,99.576861 L 368.73054,99.576161 L 358.98054,99.575451 L 358.98054,105.36487 C 358.98054,110.95616 359.07032,111.15294 361.60383,111.11487 C 363.04663,111.09319 364.70804,111.82523 365.29584,112.74163 C 366.83900,115.14747 364.33835,117.87700 361.14954,117.26742 L 358.69689,116.79857 L 359.33872,125.84064 C 359.69172,130.81377 359.98054,137.35831 359.98054,140.38406 C 359.98054,145.66011 360.05580,145.81731 361.81823,144.22234 C 363.53782,142.66613 363.77052,142.68590 365.43951,144.53011 C 367.41158,146.70923 366.92766,149.27477 364.35861,150.26061 C 363.32539,150.65710 362.17587,150.19548 361.33593,149.04680 C 360.16573,147.44645 359.98054,148.72226 359.98054,158.38432 C 359.98054,168.63245 360.96280,172.57528 362.27029,167.57545 z M 368.53724,158.35294 C 366.50539,155.45206 366.56939,154.86586 369.06373,153.53093 C 370.72563,152.64150 371.53455,152.76685 373.06373,154.15073 C 375.50665,156.36155 375.50061,158.22675 373.04628,159.54027 C 370.44222,160.93392 370.32305,160.90254 368.53724,158.35294 z M 372.53439,157.48832 C 373.39252,156.09984 371.49043,154.14228 370.11135,154.99461 C 368.96289,155.70439 369.69826,158.57545 371.02851,158.57545 C 371.48721,158.57545 372.16485,158.08624 372.53439,157.48832 z M 377.64721,150.90878 C 376.56066,149.82224 376.88703,146.06896 378.18054,144.77545 C 379.79055,143.16544 383.91768,143.24806 384.55274,144.90300 C 385.54322,147.48414 383.16366,151.57545 380.67196,151.57545 C 379.37501,151.57545 378.01387,151.27545 377.64721,150.90878 z M 381.98054,149.15724 C 381.98054,148.92722 382.25369,148.02722 382.58753,147.15724 C 383.02267,146.02329 382.59798,145.57545 381.08753,145.57545 C 379.64721,145.57545 378.98054,146.20827 378.98054,147.57545 C 378.98054,148.68656 379.64721,149.57545 380.48054,149.57545 C 381.30554,149.57545 381.98054,149.38725 381.98054,149.15724 z M 371.92806,136.01520 L 369.48054,133.40555 L 371.84132,131.49050 C 374.94573,128.97223 375.79397,129.07187 377.18181,132.11784 C 378.16329,134.27196 378.03746,134.96298 376.35789,136.64254 C 374.38148,138.61896 374.36830,138.61709 371.92806,136.01520 z M 375.98054,134.07545 C 375.98054,132.19222 374.67222,131.52994 372.99710,132.56522 C 371.85368,133.27189 371.83801,133.69878 372.90815,134.98822 C 374.34182,136.71569 375.98054,136.22884 375.98054,134.07545 z M 364.69312,125.95469 C 363.22401,124.48558 364.03974,120.61413 366.04446,119.54124 C 368.81528,118.05835 371.18303,120.03218 370.78110,123.48985 C 370.55743,125.41396 369.83138,126.15115 367.94312,126.37136 C 366.54753,126.53411 365.08503,126.34661 364.69312,125.95469 z M 368.98054,122.49212 C 368.98054,120.05507 366.64377,120.39955 366.15722,122.90832 C 365.96584,123.89508 366.47598,124.57545 367.40722,124.57545 C 368.33485,124.57545 368.98054,123.72045 368.98054,122.49212 z M 377.53724,124.35294 C 375.47932,121.41485 375.54147,121.09316 378.54746,119.12356 C 380.56280,117.80305 381.42233,117.69721 382.54746,118.63099 C 384.51268,120.26198 384.34446,122.93614 382.15180,124.92046 C 379.78627,127.06124 379.40102,127.01386 377.53724,124.35294 z M 381.80009,121.74712 C 382.14779,119.38413 381.03255,118.92344 379.25869,120.69731 C 377.91289,122.04310 378.75770,124.81431 380.35375,124.28939 C 380.97348,124.08556 381.62434,122.94154 381.80009,121.74712 z M 374.02622,115.13049 C 373.36666,114.33577 372.97406,112.64827 373.15378,111.38049 C 373.61949,108.09530 378.34159,108.09530 378.80730,111.38049 C 379.12426,113.61633 377.51410,116.57545 375.98054,116.57545 C 375.56523,116.57545 374.68579,115.92522 374.02622,115.13049 z M 376.98054,112.57545 C 376.98054,111.47545 376.53054,110.57545 375.98054,110.57545 C 375.43054,110.57545 374.98054,111.47545 374.98054,112.57545 C 374.98054,113.67545 375.43054,114.57545 375.98054,114.57545 C 376.53054,114.57545 376.98054,113.67545 376.98054,112.57545 z M 366.98054,168.57545 C 366.98054,168.02545 366.30554,167.57545 365.48054,167.57545 C 364.65554,167.57545 363.98054,168.02545 363.98054,168.57545 C 363.98054,169.12545 364.65554,169.57545 365.48054,169.57545 C 366.30554,169.57545 366.98054,169.12545 366.98054,168.57545 z M 364.98054,147.13447 C 364.98054,146.34193 364.56163,145.43459 364.04964,145.11816 C 362.86075,144.38338 361.66504,146.25593 362.48054,147.57545 C 363.40009,149.06332 364.98054,148.78454 364.98054,147.13447 z M 437.89558,136.12804 C 438.35332,135.54912 438.50535,131.42292 438.23342,126.95871 L 437.73900,118.84198 L 430.11629,118.66524 C 425.92380,118.56803 422.06315,118.05806 421.53706,117.53197 C 420.27618,116.27109 415.26760,116.30195 414.48054,117.57545 C 414.12003,118.15876 408.47016,118.57545 400.92152,118.57545 C 389.14181,118.57545 385.99983,119.23327 388.98054,121.07545 C 389.53054,121.41537 389.98054,125.28028 389.98054,129.66415 L 389.98054,137.63482 L 413.52193,137.40773 C 428.53782,137.26287 437.36472,136.79944 437.89558,136.12804 z M 363.98054,114.07545 C 363.98054,113.24212 363.09165,112.57545 361.98054,112.57545 C 359.98830,112.57545 359.37942,113.64099 360.64721,114.90878 C 361.86514,116.12671 363.98054,115.59786 363.98054,114.07545 z M 383.80386,103.24258 C 384.01791,102.13893 383.45806,101.57545 382.14748,101.57545 C 380.64689,101.57545 380.29694,102.06937 380.70148,103.61634 C 381.31423,105.95947 383.32391,105.71736 383.80386,103.24258 z M 385.98054,100.57545 C 385.98054,100.02545 385.50398,99.575451 384.92152,99.575451 C 384.33906,99.575451 384.14062,100.02545 384.48054,100.57545 C 385.27248,101.85684 385.98054,101.85684 385.98054,100.57545 z M 441.57026,130.43028 C 442.34866,129.17080 455.98054,129.35782 455.98054,130.62797 C 455.98054,131.28837 453.19781,131.60684 448.51125,131.48280 C 444.40313,131.37406 441.27969,130.90043 441.57026,130.43028 z "
       style="fill:#000000" />
    <rect
       y="93.768280"
       x="349.26926"
       height="78.381279"
       width="109.57383"
       id="rect5369"
       style="color:#000000;fill:none;fill-opacity:1.0000000;fill-rule:nonzero;stroke:#000000;stroke-width:3.7500000;stroke-linecap:butt;stroke-linejoin:miter;stroke-miterlimit:4.0000000;stroke-dashoffset:0.0000000;stroke-opacity:1.0000000;marker:none;marker-start:none;marker-mid:none;marker-end:none;visibility:visible;display:inline;overflow:visible" />
  </g>
  <g
     transform="translate(-0.661026,0.000000)"
     id="g6926">
    <g
       transform="translate(-0.289062,1.013433)"
       id="g5283">
      <rect
         y="92.944214"
         x="215.54398"
         height="78.381279"
         width="109.57383"
         id="rect1439"
         style="color:#000000;fill:#eae8c0;fill-opacity:1.0000000;fill-rule:nonzero;stroke:#000000;stroke-width:3.7500000;stroke-linecap:butt;stroke-linejoin:miter;stroke-miterlimit:4.0000000;stroke-dashoffset:0.0000000;stroke-opacity:1.0000000;marker:none;marker-start:none;marker-mid:none;marker-end:none;visibility:visible;display:inline;overflow:visible" />
      <path
         sodipodi:nodetypes="ccccccc"
         id="path2962"
         d="M 239.92015,99.483277 C 234.98597,99.382937 231.65973,98.497107 225.40866,100.20614 C 225.83156,121.89041 226.23673,147.48366 226.73265,169.29578 C 236.43057,170.59903 245.89152,170.36208 255.82640,169.29578 C 255.07996,153.93404 253.38272,138.79138 254.47244,123.40884 C 254.41585,115.53361 254.86954,106.51689 254.14406,99.277567 C 249.72799,97.919097 244.46545,98.495547 239.92015,99.483277 z "
         style="fill:#3948bc;fill-opacity:1.0000000;stroke:none;stroke-opacity:1.0000000" />
      <path
         sodipodi:nodetypes="cccccccccccccc"
         id="path4482"
         d="M 254.92022,117.12203 L 268.92701,116.28030 C 276.63075,115.81735 287.76826,115.81735 293.67705,116.28030 L 304.42030,117.12203 L 304.70846,127.03387 C 304.86695,132.48538 304.62484,137.31749 304.17044,137.77189 C 303.71603,138.22630 295.93636,138.84420 286.88227,139.14501 C 277.82819,139.44581 266.68655,139.94337 262.12308,140.25068 L 253.82586,140.80944 L 254.92022,117.12203 z M 253.92030,119.81449 L 253.92030,128.68159 L 253.92030,137.54868 L 253.92030,119.81449 z "
         style="fill:#cebb12;fill-opacity:1.0000000" />
      <path
         id="path1298"
         d="M 224.23053,151.38409 C 224.18190,140.79659 223.80861,124.93409 223.40100,116.13409 C 222.88961,105.09365 222.99451,99.776237 223.73942,98.979627 C 224.36232,98.313497 230.95230,97.396077 239.31895,96.810737 C 256.92152,95.579237 256.31897,95.179977 256.31891,108.07522 L 256.31887,117.13409 L 270.32566,116.29236 C 278.02940,115.82941 289.16691,115.82941 295.07570,116.29236 L 305.81895,117.13409 L 306.10711,127.04593 C 306.26560,132.49744 306.02349,137.32955 305.56909,137.78395 C 305.11468,138.23836 297.33501,138.85626 288.28092,139.15707 C 279.22684,139.45787 268.08520,139.95543 263.52173,140.26274 L 255.22451,140.82150 L 255.74057,144.97779 C 256.02441,147.26376 256.53897,153.97159 256.88403,159.88409 L 257.51141,170.63409 L 240.91518,170.63409 L 224.31895,170.63409 L 224.23053,151.38409 z M 253.81936,168.46702 C 254.10441,168.18196 253.84982,161.24044 253.25361,153.04141 C 252.60393,144.10719 252.45111,130.35665 252.87219,118.72360 L 253.57480,99.313097 L 240.26718,99.986617 C 232.94799,100.35706 226.80505,100.81466 226.61620,101.00351 C 226.42735,101.19236 226.58004,116.46461 226.95552,134.94185 C 227.62592,167.93192 227.67585,168.54532 229.72858,169.00869 C 232.41876,169.61594 253.13625,169.15012 253.81936,168.46702 z M 291.06895,136.00311 L 303.31895,135.43270 L 303.31895,127.53340 C 303.31895,123.18878 302.98145,119.62855 302.56895,119.62177 C 302.15645,119.61500 296.17737,119.32971 289.28210,118.98779 C 282.38683,118.64588 271.92433,118.69473 266.03210,119.09634 L 255.31895,119.82655 L 255.31895,128.69365 L 255.31895,137.56074 L 267.06895,137.06713 C 273.53145,136.79564 284.33145,136.31683 291.06895,136.00311 z "
         style="fill:#000000" />
    </g>
    <g
       transform="translate(90.57270,-103.6914)"
       id="g6921">
      <rect
         y="282.26102"
         x="124.68221"
         height="78.381279"
         width="109.57383"
         id="rect6146"
         style="color:#000000;fill:#eae8c0;fill-opacity:1.0000000;fill-rule:nonzero;stroke:#000000;stroke-width:3.7500000;stroke-linecap:butt;stroke-linejoin:miter;stroke-miterlimit:4.0000000;stroke-dashoffset:0.0000000;stroke-opacity:1.0000000;marker:none;marker-start:none;marker-mid:none;marker-end:none;visibility:visible;display:inline;overflow:visible" />
      <path
         id="path6148"
         d="M 156.21875,287.81250 C 153.78294,287.91027 151.33515,288.31863 149.06250,288.81250 C 144.12831,288.71216 140.81357,287.82222 134.56250,289.53125 C 134.98539,311.21551 135.37908,336.81288 135.87500,358.62500 C 145.57291,359.92825 155.03387,359.69130 164.96875,358.62500 C 164.50452,349.07112 163.73811,339.58856 163.43750,330.09375 L 171.25000,329.56250 C 175.81347,329.25519 186.97717,328.76954 196.03125,328.46875 C 205.08534,328.16794 212.85808,327.54817 213.31250,327.09375 C 213.76690,326.63935 214.00225,321.79525 213.84375,316.34375 L 213.56250,306.43750 L 202.81250,305.59375 C 196.90371,305.13080 185.76624,305.13079 178.06250,305.59375 L 163.65625,307.75000 C 163.72055,301.19097 163.86034,294.37234 163.28125,288.59375 C 161.07321,287.91452 158.65456,287.71473 156.21875,287.81250 z "
         style="fill:#bc7a83;fill-opacity:1.0000000;stroke:none;stroke-opacity:1.0000000" />
      <path
         sodipodi:nodetypes="ccccccccccccccccccccccccccccccccccccccccc"
         id="path6152"
         d="M 158.53125,285.56250 C 156.11238,285.57162 152.86939,285.81713 148.46875,286.12500 C 140.10210,286.71034 133.49790,287.61513 132.87500,288.28125 C 132.13009,289.07786 132.01985,294.39705 132.53125,305.43750 C 132.93886,314.23750 133.32637,330.09999 133.37500,340.68750 L 133.46875,359.93750 L 150.06250,359.93750 L 166.65625,359.93750 L 166.03125,349.18750 C 165.68619,343.27500 165.15884,336.56722 164.87500,334.28125 L 164.37500,330.12500 L 172.65625,329.59375 C 177.21972,329.28644 188.35217,328.76954 197.40625,328.46875 C 206.46034,328.16794 214.26433,327.54817 214.71875,327.09375 C 215.17315,326.63935 215.40849,321.82651 215.25000,316.37500 L 214.96875,306.43750 L 204.21875,305.59375 C 198.30996,305.13080 187.17249,305.13080 179.46875,305.59375 L 165.46875,306.43750 L 165.46875,297.40625 C 165.46880,287.73482 165.78787,285.53513 158.53125,285.56250 z M 162.71875,288.62500 L 162.00000,308.03125 C 161.98698,308.39100 162.01193,308.79266 162.00000,309.15625 L 164.46875,309.15625 L 175.15625,308.40625 C 181.04848,308.00464 191.51099,307.97058 198.40625,308.31250 C 205.30152,308.65442 211.30626,308.93073 211.71875,308.93750 C 212.13125,308.94428 212.46876,312.49914 212.46875,316.84375 L 212.46875,324.75000 L 200.21875,325.31250 C 193.48125,325.62622 182.68126,326.10350 176.21875,326.37500 L 164.46875,326.87500 L 161.81250,326.59375 C 161.88380,332.44699 162.08896,337.98038 162.40625,342.34375 C 163.00246,350.54278 163.25380,357.49620 162.96875,357.78125 C 162.28564,358.46435 141.56518,358.91974 138.87500,358.31250 C 136.82227,357.84913 136.76414,357.24008 136.09375,324.25000 C 135.71827,305.77276 135.56115,290.50135 135.75000,290.31250 C 135.93885,290.12365 142.08705,289.68295 149.40625,289.31250 L 162.71875,288.62500 z "
         style="fill:#000000" />
    </g>
  </g>
</svg>
